PathFileType	4	(X/Y/Z)	C:\Users\adpatrick\OneDrive - nih.no\Desktop\WebApp1080sync\WebAppv0.1\fp22_m505_left 2_Sports2D\fp22_m505_left 2_Sports2D_px_person00.trc
DataRate	CameraRate	NumFrames	NumMarkers	Units	OrigDataRate	OrigDataStartFrame	OrigNumFrames
60	60	4	22	m	60	217	869
Frame#	Time	Hip			RHip			RKnee			RAnkle			RBigToe			RSmallToe			RHeel			LHip			LKnee			LAnkle			LBigToe			LSmallToe			LHeel			Neck			Head			Nose			RShoulder			RElbow			RWrist			LShoulder			LElbow			LWrist		
		X1	Y1	Z1	X2	Y2	Z2	X3	Y3	Z3	X4	Y4	Z4	X5	Y5	Z5	X6	Y6	Z6	X7	Y7	Z7	X8	Y8	Z8	X9	Y9	Z9	X10	Y10	Z10	X11	Y11	Z11	X12	Y12	Z12	X13	Y13	Z13	X14	Y14	Z14	X15	Y15	Z15	X16	Y16	Z16	X17	Y17	Z17	X18	Y18	Z18	X19	Y19	Z19	X20	Y20	Z20	X21	Y21	Z21	X22	Y22	Z22
217	3.6166666666666667	168.04337841413997	545.7849697038254	0.0	138.41617514865257	544.5135008068303	0.0	118.76954374239986	655.9526441383794	0.0	87.95486344170234	767.5219812602077	0.0	116.46693794152132	793.9416489083712	0.0	97.4031449324932	797.72898330867	0.0	76.08891164155916	784.8093333476475	0.0	190.81188884853668	543.5895216337844	0.0	227.62264544910178	643.8174609087177	0.0	231.71820261625825	757.7978223178351	0.0	271.4992509407036	783.7741267077379	0.0	274.3690410002513	777.6369294277188	0.0	221.84882283978556	775.226103527952	0.0	200.41443406985414	397.7181897990168	0.0	230.2078660901725	329.7710817938804	0.0	238.8757666605205	373.33042746787856	0.0	146.6734281001258	418.2271500075	0.0	121.2246061097432	498.98437335887587	0.0	140.27215330349108	568.0990315624281	0.0	234.61637627397445	427.24803473693845	0.0	239.81741565268388	501.1992598427103	0.0	258.4406319199861	562.8139714751692	0.0
218	3.6333333333333333	167.94914094782595	545.7949890677419	0.0	138.3794889320557	544.4202405995586	0.0	118.78499923263831	655.8495468876849	0.0	87.92282855340166	767.3810353951623	0.0	116.55972032771656	793.8964081194367	0.0	97.41083866754263	797.7303729904553	0.0	76.08591480758392	784.7562428988616	0.0	190.84555489946467	543.4661768690733	0.0	227.68238920937262	643.8208397223746	0.0	231.80909918855156	757.7437165786116	0.0	271.4857999485273	783.9663588695261	0.0	274.35445431019264	777.8202584165301	0.0	221.9164930450173	775.3713442192587	0.0	200.47411821405174	397.7859180044614	0.0	230.36262375133154	329.90490062079914	0.0	238.94849191299	373.5643293738185	0.0	146.7332296764322	418.2954938478454	0.0	121.42185901522228	499.2041135340751	0.0	140.64544706932878	568.2666866383842	0.0	234.653320743603	427.2902853266123	0.0	239.97893721772317	500.96052566544165	0.0	258.4948135318458	562.7414286850217	0.0
219	3.65	167.9056600634887	545.794916953051	0.0	138.34214869504754	544.3888147892798	0.0	118.77257399319524	655.7833633000607	0.0	87.83800975028025	767.263160445415	0.0	116.59982443805059	793.8363408254884	0.0	97.37799190596934	797.7123146809014	0.0	76.04407177932762	784.6956115917479	0.0	190.8938077369988	543.4208734572634	0.0	227.75413245868032	643.8307704975939	0.0	231.9539500534735	757.6513780703405	0.0	271.4775359642673	784.0192739406107	0.0	274.3503340585799	777.9311721949313	0.0	221.98963122317687	775.4655345937012	0.0	200.52610484646652	397.85806109119227	0.0	230.56058827041508	329.9960715267803	0.0	239.05909976656753	373.78915956783374	0.0	146.77097233078865	418.36760722771385	0.0	121.61910362638955	499.4467239864329	0.0	141.02129286198124	568.4494363967642	0.0	234.7080164149091	427.3029659414063	0.0	240.08856439674958	500.7589667373599	0.0	258.5395912690326	562.7474709941359	0.0
220	3.6666666666666665	167.9187477827026	545.6935535767343	0.0	138.3092701305374	544.2888556551916	0.0	118.7459058842698	655.725850752171	0.0	87.74940676383336	767.2236593493396	0.0	116.64693319469748	793.7872268171411	0.0	97.34952720594426	797.6856689139618	0.0	75.9600683681317	784.6459668439761	0.0	190.94453136819993	543.379151044642	0.0	227.84180783355768	643.8041522344495	0.0	232.11451289166905	757.5542235279468	0.0	271.4646186879398	783.9884153796066	0.0	274.352111346661	777.9862115549764	0.0	222.0746091335388	775.5241310977998	0.0	200.61496692969754	397.9406832838645	0.0	230.78808416997234	330.10446628433647	0.0	239.20343976099025	373.9888462606214	0.0	146.8128350026654	418.4605945181768	0.0	121.7852354060971	499.72242909367947	0.0	141.38301585960036	568.6189888991477	0.0	234.76517113102352	427.308850566364	0.0	240.13978409800598	500.67524843705365	0.0	258.5870309461591	562.8023084792403	0.0
